<svg xmlns="http://www.w3.org/2000/svg" viewBox="0 0 800 600">
  <defs>
    <linearGradient id="bg" x1="0" y1="0" x2="1" y2="1">
      <stop offset="0%" stop-color="#65a30d"/>
      <stop offset="100%" stop-color="#16a34a"/>
    </linearGradient>
  </defs>
  <rect width="800" height="600" fill="url(#bg)"/>
  <!-- Organic sculptural botanical forms -->
  <!-- Central organic form -->
  <g opacity="0.25" fill="#fff">
    <path d="M350 500 Q320 400 340 300 Q360 200 400 180 Q440 200 460 300 Q480 400 450 500 Z"/>
  </g>
  <g opacity="0.15" fill="none" stroke="#fff" stroke-width="2">
    <path d="M370 480 Q350 380 365 300 Q380 220 400 200 Q420 220 435 300 Q450 380 430 480"/>
    <path d="M385 460 Q375 370 385 300 Q395 240 400 220 Q405 240 415 300 Q425 370 415 460"/>
  </g>
  <!-- Branching leaves -->
  <g stroke="#fff" stroke-width="2" fill="#fff" fill-opacity="0.1" opacity="0.3">
    <path d="M370 320 Q300 280 250 300 Q300 260 370 300"/>
    <path d="M430 280 Q500 240 540 260 Q500 220 430 260"/>
    <path d="M360 380 Q280 360 240 390 Q280 340 360 360"/>
    <path d="M440 350 Q520 320 560 340 Q520 300 440 330"/>
  </g>
  <!-- Root system -->
  <g stroke="#fff" stroke-width="1.5" fill="none" opacity="0.15">
    <path d="M380 500 Q360 540 340 580 Q320 600 300 600"/>
    <path d="M400 500 Q400 550 400 600"/>
    <path d="M420 500 Q440 540 460 580 Q480 600 500 600"/>
    <path d="M390 510 Q370 560 350 600"/>
    <path d="M410 510 Q430 560 450 600"/>
  </g>
  <!-- Small organic accents -->
  <g fill="#fff" opacity="0.1">
    <circle cx="180" cy="150" r="30"/>
    <circle cx="650" cy="120" r="25"/>
    <circle cx="120" cy="450" r="20"/>
    <circle cx="680" cy="480" r="28"/>
  </g>
</svg>
